<?xml version="1.0" encoding="UTF-8" standalone="no"?>
<!-- Created with Inkscape (http://www.inkscape.org/) -->

<svg
   width="29mm"
   height="29mm"
   viewBox="0 0 29 29"
   version="1.1"
   id="svg5"
   xml:space="preserve"
   xmlns:inkscape="http://www.inkscape.org/namespaces/inkscape"
   xmlns:sodipodi="http://sodipodi.sourceforge.net/DTD/sodipodi-0.dtd"
   xmlns:xlink="http://www.w3.org/1999/xlink"
   xmlns="http://www.w3.org/2000/svg"
   xmlns:svg="http://www.w3.org/2000/svg"><sodipodi:namedview
     id="namedview7"
     pagecolor="#ffffff"
     bordercolor="#000000"
     borderopacity="0.25"
     inkscape:showpageshadow="2"
     inkscape:pageopacity="0.0"
     inkscape:pagecheckerboard="0"
     inkscape:deskcolor="#d1d1d1"
     inkscape:document-units="mm"
     showgrid="false" /><defs
     id="defs2"><linearGradient
       inkscape:collect="always"
       id="linearGradient1045"><stop
         style="stop-color:#ff5c00;stop-opacity:0.80538297;"
         offset="0"
         id="stop1041" /><stop
         style="stop-color:#ff007a;stop-opacity:0.39130437;"
         offset="1"
         id="stop1043" /></linearGradient><clipPath
       id="21b1b8f3fc"><path
         d="M 21.035156,102 H 138 V 273 H 21.035156 Z m 0,0"
         clip-rule="nonzero"
         id="path976" /></clipPath><clipPath
       id="63b6ff816c"><path
         d="M 129,58.261719 H 244 V 317 H 129 Z m 0,0"
         clip-rule="nonzero"
         id="path979" /></clipPath><linearGradient
       inkscape:collect="always"
       xlink:href="#linearGradient1045"
       id="linearGradient1047"
       x1="21.203125"
       y1="187.49805"
       x2="353.78906"
       y2="187.49805"
       gradientUnits="userSpaceOnUse" /><linearGradient
       inkscape:collect="always"
       xlink:href="#linearGradient1045"
       id="linearGradient2501"
       gradientUnits="userSpaceOnUse"
       x1="21.203125"
       y1="187.49805"
       x2="353.78906"
       y2="187.49805" /><linearGradient
       inkscape:collect="always"
       xlink:href="#linearGradient1045"
       id="linearGradient2503"
       gradientUnits="userSpaceOnUse"
       x1="21.203125"
       y1="187.49805"
       x2="353.78906"
       y2="187.49805" /><linearGradient
       inkscape:collect="always"
       xlink:href="#linearGradient1045"
       id="linearGradient2505"
       gradientUnits="userSpaceOnUse"
       x1="21.203125"
       y1="187.49805"
       x2="353.78906"
       y2="187.49805" /><linearGradient
       inkscape:collect="always"
       xlink:href="#linearGradient1045"
       id="linearGradient2507"
       gradientUnits="userSpaceOnUse"
       x1="21.203125"
       y1="187.49805"
       x2="353.78906"
       y2="187.49805" /><linearGradient
       inkscape:collect="always"
       xlink:href="#linearGradient1045"
       id="linearGradient2509"
       gradientUnits="userSpaceOnUse"
       x1="21.203125"
       y1="187.49805"
       x2="353.78906"
       y2="187.49805" /><linearGradient
       inkscape:collect="always"
       xlink:href="#linearGradient1045"
       id="linearGradient2511"
       gradientUnits="userSpaceOnUse"
       x1="21.203125"
       y1="187.49805"
       x2="353.78906"
       y2="187.49805" /><linearGradient
       inkscape:collect="always"
       xlink:href="#linearGradient1045"
       id="linearGradient2513"
       gradientUnits="userSpaceOnUse"
       x1="21.203125"
       y1="187.49805"
       x2="353.78906"
       y2="187.49805" /><linearGradient
       inkscape:collect="always"
       xlink:href="#linearGradient1045"
       id="linearGradient2515"
       gradientUnits="userSpaceOnUse"
       x1="21.203125"
       y1="187.49805"
       x2="353.78906"
       y2="187.49805" /></defs><g
     inkscape:label="Ebene 1"
     inkscape:groupmode="layer"
     id="layer1"><g
       id="g1016"
       transform="matrix(0.06660777,0,0,0.06660777,2.0113034,2.0111732)"
       style="fill:url(#linearGradient1047);fill-opacity:1;stroke:none"><path
         fill="#ff5c00"
         d="m 126.07031,269 c -1.83984,0 -3.65234,-0.62109 -5.09765,-1.76953 L 27.863281,193.97266 c -2.003906,-1.57422 -3.148437,-3.9336 -3.148437,-6.47657 0,-2.54297 1.144531,-4.90234 3.140625,-6.48828 l 93.117191,-73.24218 c 1.44531,-1.15235 3.25781,-1.76954 5.09765,-1.76954 2.54297,0 4.91797,1.13672 6.47656,3.14454 1.36329,1.72656 1.98047,3.89062 1.71485,6.07031 -0.25391,2.1914 -1.36328,4.14453 -3.08985,5.5039 l -84.85937,66.78125 84.85937,66.76563 c 1.72657,1.3789 2.83594,3.33203 3.08985,5.50781 0.26562,2.19141 -0.35156,4.33984 -1.71485,6.08203 -1.55859,1.9961 -3.93359,3.14844 -6.47656,3.14844"
         fill-opacity="1"
         fill-rule="nonzero"
         id="path984"
         style="fill:url(#linearGradient2501);fill-opacity:1;stroke:none" /><g
         clip-path="url(#21b1b8f3fc)"
         id="g988"
         style="fill:url(#linearGradient2505);fill-opacity:1;stroke:none"><path
           fill="#ff007a"
           d="m 126.07031,102.48438 c -2.625,0 -5.19531,0.88281 -7.26172,2.51171 L 25.6875,178.25391 c -2.855469,2.26171 -4.484375,5.61718 -4.484375,9.24218 0,3.625 1.640625,6.9961 4.484375,9.24219 l 93.12109,73.25781 c 2.05079,1.61328 4.63672,2.51563 7.26172,2.51563 3.64063,0 7.01172,-1.64453 9.24219,-4.4961 1.95312,-2.45703 2.8125,-5.53515 2.44531,-8.65234 -0.3789,-3.12109 -1.9375,-5.91406 -4.41015,-7.85547 L 51.984375,187.49609 133.34766,123.48438 c 2.47265,-1.95313 4.03125,-4.73438 4.41015,-7.85157 0.36719,-3.12109 -0.49219,-6.19531 -2.44531,-8.66797 -2.23047,-2.85156 -5.61719,-4.48046 -9.24219,-4.48046 z m 0,7.02343 c 1.40625,0 2.79688,0.61719 3.72266,1.79688 1.6289,2.0664 1.26562,5.04297 -0.78516,6.65625 l -88.386716,69.53515 88.386716,69.53516 c 2.05078,1.61328 2.41406,4.59375 0.78516,6.64453 -0.92578,1.19141 -2.31641,1.8125 -3.72266,1.8125 -1.02343,0 -2.05078,-0.32422 -2.92187,-1.01172 L 30.03125,191.21875 c -1.136719,-0.89844 -1.804688,-2.27344 -1.804688,-3.72266 0,-1.46093 0.667969,-2.82422 1.804688,-3.72265 l 93.11719,-73.25391 c 0.85937,-0.6914 1.89844,-1.01172 2.92187,-1.01172"
           fill-opacity="1"
           fill-rule="nonzero"
           id="path986"
           style="fill:url(#linearGradient2503);fill-opacity:1;stroke:none" /></g><path
         fill="#ff5c00"
         d="m 248.92969,269 c -2.54297,0 -4.90625,-1.15234 -6.49219,-3.14844 -2.80859,-3.5664 -2.19141,-8.76562 1.39062,-11.58984 l 84.875,-66.76563 -84.875,-66.78125 c -3.58203,-2.80859 -4.19921,-8.0039 -1.39062,-11.57421 1.58594,-2.00782 3.94922,-3.14454 6.49219,-3.14454 1.83984,0 3.64843,0.61719 5.09765,1.76954 l 93.11719,73.24218 c 1.99609,1.58594 3.13281,3.94531 3.13281,6.48828 0,2.54297 -1.13672,4.90235 -3.14453,6.47657 l -93.10547,73.25781 C 252.57812,268.37891 250.76953,269 248.92969,269"
         fill-opacity="1"
         fill-rule="nonzero"
         id="path990"
         style="fill:url(#linearGradient2507);fill-opacity:1;stroke:none" /><path
         fill="#ff007a"
         d="m 248.92969,102.48438 c -3.625,0 -6.9961,1.6289 -9.2461,4.48046 -4.01562,5.09766 -3.13281,12.5 1.96875,16.51954 l 81.35938,64.01171 -81.35938,64.01172 c -5.10156,4.00391 -5.98437,11.42188 -1.96875,16.50781 2.25,2.85157 5.6211,4.4961 9.2461,4.4961 2.625,0 5.19531,-0.90235 7.26172,-2.51563 l 93.11718,-73.25781 c 2.85157,-2.24609 4.48047,-5.61719 4.48047,-9.24219 0,-3.625 -1.6289,-6.98047 -4.46484,-9.24218 l -93.1211,-73.25782 c -2.0625,-1.6289 -4.64843,-2.51171 -7.27343,-2.51171 z m 0,7.02343 c 1.02343,0 2.0625,0.32032 2.91797,1.01172 l 93.12109,73.25391 c 1.13672,0.89843 1.79687,2.26172 1.79687,3.72265 0,1.44922 -0.66015,2.82422 -1.79687,3.72266 l -93.12109,73.25781 c -0.85547,0.6875 -1.89454,1.01172 -2.91797,1.01172 -1.40625,0 -2.79688,-0.62109 -3.72266,-1.8125 -1.61719,-2.05078 -1.26562,-5.03125 0.78516,-6.64453 L 334.375,187.49609 245.99219,117.96094 c -2.05078,-1.61328 -2.40235,-4.58985 -0.78516,-6.65625 0.92578,-1.17969 2.32813,-1.79688 3.72266,-1.79688"
         fill-opacity="1"
         fill-rule="nonzero"
         id="path992"
         style="fill:url(#linearGradient2509);fill-opacity:1;stroke:none" /><path
         fill="#ff5c00"
         d="m 141.22656,313.20703 c -1.02344,0 -2.02344,-0.19922 -2.97656,-0.5625 -2.05078,-0.80078 -3.67969,-2.34766 -4.56641,-4.35547 -0.89843,-2.02344 -0.9414,-4.25781 -0.15234,-6.30859 L 224.47266,67.054688 c 1.22265,-3.144532 4.3125,-5.265626 7.68359,-5.265626 1.02344,0 2.03516,0.195313 2.99219,0.5625 4.22656,1.640626 6.34765,6.433594 4.70312,10.675782 L 148.92578,307.9375 c -1.22266,3.14453 -4.32812,5.26953 -7.69922,5.26953"
         fill-opacity="1"
         fill-rule="nonzero"
         id="path994"
         style="fill:url(#linearGradient2511);fill-opacity:1;stroke:none" /><g
         clip-path="url(#63b6ff816c)"
         id="g998"
         style="fill:url(#linearGradient2515);fill-opacity:1;stroke:none"><path
           fill="#ff007a"
           d="m 232.15625,58.277344 c -4.82031,0 -9.23047,3.03125 -10.95703,7.515625 L 130.25781,300.70312 c -1.125,2.9375 -1.05469,6.125 0.21094,9.00391 1.27734,2.86719 3.58203,5.08594 6.51562,6.21094 1.36329,0.53125 2.78125,0.80078 4.24219,0.80078 4.82031,0 9.23047,-3.02344 10.97266,-7.51563 L 243.125,74.289062 c 2.34766,-6.054687 -0.67188,-12.878906 -6.72656,-15.210937 -1.34766,-0.535156 -2.78125,-0.800781 -4.24219,-0.800781 z m 0,7.023437 c 0.57422,0 1.15234,0.113281 1.71484,0.320313 2.44141,0.941406 3.64844,3.683594 2.71094,6.125 L 145.63672,306.66016 c -0.71485,1.88281 -2.51172,3.03125 -4.41016,3.03125 -0.57422,0 -1.15234,-0.0977 -1.71094,-0.32032 -2.44531,-0.9414 -3.65234,-3.69531 -2.69921,-6.125 L 227.74609,68.335938 c 0.73047,-1.882813 2.51172,-3.035157 4.41016,-3.035157"
           fill-opacity="1"
           fill-rule="nonzero"
           id="path996"
           style="fill:url(#linearGradient2513);fill-opacity:1;stroke:none" /></g></g></g><style
     id="style184">
        path { fill: #000; }
        @media (prefers-color-scheme: dark) {
            path { fill: #FFF; }
        }
    </style></svg>
